<?xml version="1.0" encoding="utf-8"?>
<!-- Generator: Adobe Illustrator 23.0.2, SVG Export Plug-In . SVG Version: 6.00 Build 0)  -->
<svg version="1.1" id="Layer_1" xmlns="http://www.w3.org/2000/svg" xmlns:xlink="http://www.w3.org/1999/xlink" x="0px" y="0px"
	 viewBox="0 0 50 50" style="enable-background:new 0 0 50 50;" xml:space="preserve">
<style type="text/css">
	.st0{fill:#209CEE;}
</style>
<path class="st0" d="M17.2,27h21.8c0.6,0,4,0,4.4,0c3.7-0.3,5.6-1.4,6.5-6.8c0,0,0-0.1,0-0.1c0-0.3,0.1-0.8,0.1-1.3
	c0-0.1,0-0.1,0-0.2c0-0.2,0-0.3,0-0.4c0-0.1,0-0.1,0-0.2c0,0,0,0,0,0c0,0,0-0.1,0-0.2c-0.2-3-0.9-6.1-2.6-8.9
	c-0.6-0.9-1.7-2.2-2.6-3C40,1.6,34.3,0,26.3,0c-7.8,0-14.2,2.2-19,6.6C2.4,11.1,0,17.2,0,25c0,7.9,2.5,14,7.5,18.4
	c5,4.4,11.6,6.6,19.9,6.6c6.4,0,11.9-1.3,16.3-4c3.4-2,4.8-4.8,6.1-8.1c0.6-1.6-0.8-3.3-2.7-3.3h-2.9c-2,0-3.6-0.1-5.3,2.6
	c-1,1.6-1.9,2.4-3.7,3.3c-3.4,1.6-6.4,1.7-9,1.6c-4.5-0.1-8-0.8-10.6-2.8c-2.5-1.9-3.5-4.1-3.9-5.4C11,30.5,13.3,27,17.2,27z
	 M12.6,13.7c1.3-2.8,6-7.7,13.5-7.7c4,0,7.1,1.1,9.4,2.6c2.1,1.4,3.5,3.2,4.3,4.8c0.1,0.2,0.2,0.4,0.3,0.5c0,0.1,0.1,0.2,0.1,0.2
	c0,0.1,0.1,0.2,0.1,0.3c1.1,3-0.2,4.8-2.7,5.7c-0.1,0-0.2,0.1-0.4,0.1c-0.1,0.1-0.3,0.1-0.4,0.1c-1.3,0.3-2.7,0.5-4.3,0.6
	c-2,0.1-4.2,0.1-6.2,0.1C19.2,21,9.2,21.2,12.6,13.7z"/>
<path d="M31.9,13.3c-0.1-2.5-1.9-4.5-4.3-5c-0.3-0.1-0.6-0.1-0.9-0.1c-2.9,0-5.3,2.4-5.3,5.3c0,2.6,1.9,4.8,4.3,5.2
	c0.3,0.1,0.6,0.1,0.9,0.1c1.3,0,2.4-0.4,3.3-1.1c1.2-1,2-2.5,2-4.1C32,13.5,32,13.4,31.9,13.3z M28.5,13.4c-0.7,0-1.3-0.4-1.6-1
	c-0.1-0.3-0.2-0.5-0.2-0.8c0-0.5,0.2-1,0.6-1.4c0.4-0.3,0.8-0.5,1.4-0.5c0.8,0.1,1.5,0.7,1.6,1.5C30.5,12.4,29.6,13.4,28.5,13.4z"/>
</svg>
